# xmcd
#
# Track frame offsets: 
#        150
#        28318
#        47681
#        99557
#        117583
#        140034
#        159089
#        203231
#        229757
#        252644
#
# Disc length: 4294 seconds
#
# Revision: 0
# Processed by: cddbd v1.5.2PL0 Copyright (c) Steve Scherf et al.
# Submitted via: ExactAudioCopyFreeDBPlugin 1.0
#
DISCID=8f10c40a
DTITLE=Stevie Ray Vaughan - Blues At Sunrise
DYEAR=2000
DGENRE=Blues
TTITLE0=Ain't Gone 'N' Give Up On Love
TTITLE1=Leave My Girl Alone 
TTITLE2=Tin Pan Alley (AKA Roughest Place In Town) (Live) 
TTITLE3=Chitlins Con Carne 
TTITLE4=The Things (That) I Used To Do 
TTITLE5=The Sky Is Crying 
TTITLE6=Texas Flood (Video Version) 
TTITLE7=May I Have A Talk With You 
TTITLE8=Dirty Pool 
TTITLE9=Blues At Sunrise (Live) 
EXTD=
EXTT0=
EXTT1=
EXTT2=
EXTT3=
EXTT4=
EXTT5=
EXTT6=
EXTT7=
EXTT8=
EXTT9=
PLAYORDER=
